<svg width="124" height="22" viewBox="0 0 124 22" fill="none" xmlns="http://www.w3.org/2000/svg">
<path d="M12.1193 9H10.5341C10.4403 8.54403 10.2763 8.14347 10.0419 7.7983C9.81179 7.45312 9.53054 7.16335 9.19815 6.92898C8.87003 6.69034 8.50568 6.51136 8.10511 6.39205C7.70455 6.27273 7.28693 6.21307 6.85227 6.21307C6.05966 6.21307 5.34162 6.41335 4.69815 6.81392C4.05895 7.21449 3.54972 7.80469 3.17045 8.58452C2.79545 9.36435 2.60795 10.321 2.60795 11.4545C2.60795 12.5881 2.79545 13.5447 3.17045 14.3246C3.54972 15.1044 4.05895 15.6946 4.69815 16.0952C5.34162 16.4957 6.05966 16.696 6.85227 16.696C7.28693 16.696 7.70455 16.6364 8.10511 16.517C8.50568 16.3977 8.87003 16.2209 9.19815 15.9865C9.53054 15.7479 9.81179 15.456 10.0419 15.1108C10.2763 14.7614 10.4403 14.3608 10.5341 13.9091H12.1193C12 14.5781 11.7827 15.1768 11.4673 15.7053C11.152 16.2337 10.7599 16.6832 10.2912 17.054C9.82244 17.4205 9.29617 17.6996 8.71236 17.8913C8.13281 18.0831 7.51278 18.179 6.85227 18.179C5.7358 18.179 4.7429 17.9062 3.87358 17.3608C3.00426 16.8153 2.32031 16.0398 1.82173 15.0341C1.32315 14.0284 1.07386 12.8352 1.07386 11.4545C1.07386 10.0739 1.32315 8.88068 1.82173 7.875C2.32031 6.86932 3.00426 6.09375 3.87358 5.5483C4.7429 5.00284 5.7358 4.73011 6.85227 4.73011C7.51278 4.73011 8.13281 4.82599 8.71236 5.01776C9.29617 5.20952 9.82244 5.49077 10.2912 5.86151C10.7599 6.22798 11.152 6.67543 11.4673 7.20384C11.7827 7.72798 12 8.3267 12.1193 9ZM17.3656 18.2301C16.7434 18.2301 16.1788 18.1129 15.6717 17.8786C15.1646 17.6399 14.7619 17.2969 14.4636 16.8494C14.1653 16.3977 14.0162 15.8523 14.0162 15.2131C14.0162 14.6506 14.127 14.1946 14.3485 13.8452C14.5701 13.4915 14.8663 13.2145 15.237 13.0142C15.6078 12.8139 16.0169 12.6648 16.4643 12.5668C16.916 12.4645 17.3699 12.3835 17.8258 12.3239C18.4224 12.2472 18.9061 12.1896 19.2768 12.1513C19.6518 12.1087 19.9245 12.0384 20.095 11.9403C20.2697 11.8423 20.3571 11.6719 20.3571 11.429V11.3778C20.3571 10.7472 20.1845 10.2571 19.8393 9.90767C19.4984 9.55824 18.9806 9.38352 18.286 9.38352C17.5659 9.38352 17.0012 9.54119 16.5922 9.85653C16.1831 10.1719 15.8954 10.5085 15.7292 10.8665L14.2974 10.3551C14.5531 9.75852 14.894 9.29403 15.3201 8.96165C15.7505 8.625 16.2193 8.39062 16.7264 8.25852C17.2377 8.12216 17.7406 8.05398 18.2349 8.05398C18.5502 8.05398 18.9125 8.09233 19.3216 8.16903C19.7349 8.24148 20.1333 8.39276 20.5169 8.62287C20.9047 8.85298 21.2264 9.20028 21.4821 9.66477C21.7377 10.1293 21.8656 10.7514 21.8656 11.5312V18H20.3571V16.6705H20.2804C20.1781 16.8835 20.0076 17.1115 19.769 17.3544C19.5304 17.5973 19.2129 17.804 18.8166 17.9744C18.4203 18.1449 17.9366 18.2301 17.3656 18.2301ZM17.5957 16.875C18.1923 16.875 18.6951 16.7578 19.1042 16.5234C19.5176 16.2891 19.8287 15.9865 20.0375 15.6158C20.2505 15.245 20.3571 14.8551 20.3571 14.446V13.0653C20.2931 13.142 20.1525 13.2124 19.9352 13.2763C19.7221 13.3359 19.475 13.3892 19.1937 13.4361C18.9167 13.4787 18.6461 13.517 18.3819 13.5511C18.122 13.581 17.911 13.6065 17.7491 13.6278C17.3571 13.679 16.9906 13.7621 16.6497 13.8771C16.313 13.9879 16.0403 14.1562 15.8315 14.3821C15.627 14.6037 15.5247 14.9062 15.5247 15.2898C15.5247 15.8139 15.7186 16.2102 16.1064 16.4787C16.4984 16.7429 16.9949 16.875 17.5957 16.875ZM24.619 18V8.18182H26.0763V9.66477H26.1786C26.3576 9.17898 26.6815 8.7848 27.1502 8.48224C27.619 8.17969 28.1474 8.02841 28.7354 8.02841C28.8462 8.02841 28.9847 8.03054 29.1509 8.0348C29.3171 8.03906 29.4428 8.04545 29.5281 8.05398V9.58807C29.4769 9.57528 29.3597 9.55611 29.1765 9.53054C28.9975 9.50071 28.8079 9.4858 28.6076 9.4858C28.1303 9.4858 27.7042 9.58594 27.3292 9.78622C26.9585 9.98224 26.6644 10.255 26.4471 10.6044C26.234 10.9496 26.1275 11.3437 26.1275 11.7869V18H24.619Z" fill="black"/>
<path d="M33.2384 0.5L33 1.45027L33.4768 1.56889L36.7881 2.39384L38.394 4.79358L41.8045 14.9868L39.792 18.9969H40.7658C40.6484 19.2338 40.5874 19.4945 40.5875 19.7587C40.5875 20.7146 41.3758 21.5 42.3353 21.5C43.2948 21.5 44.0831 20.7146 44.0831 19.7587C44.0831 19.4861 44.0188 19.2275 43.9049 18.9969H49.5049C49.3876 19.2338 49.3266 19.4945 49.3267 19.7587C49.3267 20.7146 50.115 21.5 51.0745 21.5C52.034 21.5 52.8223 20.7146 52.8223 19.7587C52.8223 19.4861 52.758 19.2275 52.6441 18.9969H53.3139V18.0174H41.3828L42.6391 15.5142H53.1766L57 4.08688H39.1027L37.3955 1.53537L33.7154 0.618844L33.2384 0.5ZM39.5217 5.06626H44.4655V7.5694H40.3593L39.5217 5.06626ZM45.4486 5.06626H49.709V7.5694H45.4486V5.06626ZM50.6922 5.06626H55.6359L54.7984 7.5694H50.6922V5.06626ZM40.6869 8.54889H44.4655V11.052H41.5244L40.6869 8.54889ZM45.4486 8.54889H49.709V11.052H45.4486V8.54889ZM50.6922 8.54889H54.4708L53.6332 11.052H50.6922V8.54889ZM41.8521 12.0315H44.4655V14.5346H42.6896L41.8521 12.0315ZM45.4486 12.0315H49.709V14.5346H45.4486V12.0315ZM50.6922 12.0315H53.3055L52.4681 14.5346H50.6922V12.0315ZM42.3353 18.9968C42.7635 18.9968 43.1 19.332 43.1 19.7586C43.1 20.1852 42.7635 20.5204 42.3353 20.5204C41.9071 20.5204 41.5706 20.1852 41.5706 19.7586C41.5706 19.332 41.9071 18.9968 42.3353 18.9968ZM51.0745 18.9968C51.5027 18.9968 51.8392 19.332 51.8392 19.7586C51.8392 20.1852 51.5027 20.5204 51.0745 20.5204C50.6463 20.5204 50.3098 20.1852 50.3098 19.7586C50.3098 19.332 50.6463 18.9968 51.0745 18.9968Z" fill="black"/>
<path d="M78.5852 18V4.90909H80.1705V16.5938H86.2557V18H78.5852ZM92.4943 18.2045C91.608 18.2045 90.8303 17.9936 90.1612 17.5717C89.4964 17.1499 88.9766 16.5597 88.6016 15.8011C88.2308 15.0426 88.0455 14.1562 88.0455 13.142C88.0455 12.1193 88.2308 11.2266 88.6016 10.4638C88.9766 9.70099 89.4964 9.10866 90.1612 8.68679C90.8303 8.26491 91.608 8.05398 92.4943 8.05398C93.3807 8.05398 94.1563 8.26491 94.821 8.68679C95.4901 9.10866 96.0099 9.70099 96.3807 10.4638C96.7557 11.2266 96.9432 12.1193 96.9432 13.142C96.9432 14.1562 96.7557 15.0426 96.3807 15.8011C96.0099 16.5597 95.4901 17.1499 94.821 17.5717C94.1563 17.9936 93.3807 18.2045 92.4943 18.2045ZM92.4943 16.8494C93.1676 16.8494 93.7216 16.6768 94.1562 16.3317C94.5909 15.9865 94.9126 15.5327 95.1214 14.9702C95.3303 14.4077 95.4347 13.7983 95.4347 13.142C95.4347 12.4858 95.3303 11.8743 95.1214 11.3075C94.9126 10.7408 94.5909 10.2827 94.1562 9.93324C93.7216 9.58381 93.1676 9.40909 92.4943 9.40909C91.821 9.40909 91.267 9.58381 90.8324 9.93324C90.3977 10.2827 90.076 10.7408 89.8672 11.3075C89.6584 11.8743 89.554 12.4858 89.554 13.142C89.554 13.7983 89.6584 14.4077 89.8672 14.9702C90.076 15.5327 90.3977 15.9865 90.8324 16.3317C91.267 16.6768 91.821 16.8494 92.4943 16.8494ZM103.209 21.8864C102.48 21.8864 101.854 21.7926 101.33 21.6051C100.806 21.4219 100.369 21.179 100.019 20.8764C99.6742 20.5781 99.3993 20.2585 99.1948 19.9176L100.396 19.0739C100.533 19.2528 100.705 19.4574 100.914 19.6875C101.123 19.9219 101.409 20.1243 101.771 20.2947C102.137 20.4695 102.617 20.5568 103.209 20.5568C104.002 20.5568 104.656 20.3651 105.171 19.9815C105.687 19.598 105.945 18.9972 105.945 18.179V16.1847H105.817C105.706 16.3636 105.548 16.5852 105.344 16.8494C105.144 17.1094 104.854 17.3416 104.475 17.5462C104.1 17.7464 103.593 17.8466 102.953 17.8466C102.161 17.8466 101.449 17.6591 100.818 17.2841C100.192 16.9091 99.6955 16.3636 99.329 15.6477C98.9668 14.9318 98.7857 14.0625 98.7857 13.0398C98.7857 12.0341 98.9625 11.1584 99.3162 10.4126C99.6699 9.66264 100.162 9.0831 100.793 8.67401C101.423 8.26065 102.152 8.05398 102.979 8.05398C103.618 8.05398 104.125 8.16051 104.5 8.37358C104.879 8.58239 105.169 8.82102 105.369 9.08949C105.574 9.35369 105.732 9.57102 105.843 9.74148H105.996V8.18182H107.453V18.2812C107.453 19.125 107.262 19.8111 106.878 20.3395C106.499 20.8722 105.987 21.2621 105.344 21.5092C104.705 21.7607 103.993 21.8864 103.209 21.8864ZM103.158 16.4915C103.763 16.4915 104.274 16.353 104.692 16.076C105.11 15.799 105.427 15.4006 105.644 14.8807C105.862 14.3608 105.97 13.7386 105.97 13.0142C105.97 12.3068 105.864 11.6825 105.651 11.1413C105.438 10.6001 105.122 10.1761 104.705 9.86932C104.287 9.5625 103.771 9.40909 103.158 9.40909C102.519 9.40909 101.986 9.57102 101.56 9.89489C101.138 10.2187 100.82 10.6534 100.607 11.1989C100.399 11.7443 100.294 12.3494 100.294 13.0142C100.294 13.696 100.401 14.299 100.614 14.8232C100.831 15.343 101.151 15.7521 101.573 16.0504C101.999 16.3445 102.527 16.4915 103.158 16.4915ZM110.215 18V8.18182H111.723V18H110.215ZM110.982 6.54545C110.688 6.54545 110.434 6.44531 110.221 6.24503C110.012 6.04474 109.908 5.80398 109.908 5.52273C109.908 5.24148 110.012 5.00071 110.221 4.80043C110.434 4.60014 110.688 4.5 110.982 4.5C111.276 4.5 111.527 4.60014 111.736 4.80043C111.949 5.00071 112.056 5.24148 112.056 5.52273C112.056 5.80398 111.949 6.04474 111.736 6.24503C111.527 6.44531 111.276 6.54545 110.982 6.54545ZM115.995 12.0938V18H114.486V8.18182H115.944V9.71591H116.071C116.301 9.21733 116.651 8.81676 117.12 8.5142C117.588 8.20739 118.194 8.05398 118.935 8.05398C119.6 8.05398 120.181 8.19034 120.68 8.46307C121.179 8.73153 121.566 9.14062 121.843 9.69034C122.12 10.2358 122.259 10.9261 122.259 11.7614V18H120.75V11.8636C120.75 11.0923 120.55 10.4915 120.15 10.0611C119.749 9.62642 119.199 9.40909 118.5 9.40909C118.019 9.40909 117.588 9.51349 117.209 9.7223C116.834 9.93111 116.538 10.2358 116.321 10.6364C116.103 11.0369 115.995 11.5227 115.995 12.0938Z" fill="black"/>
</svg>
