<svg width="192" height="26" viewBox="0 0 192 26" fill="none" xmlns="http://www.w3.org/2000/svg">
<path fill-rule="evenodd" clip-rule="evenodd" d="M4 10L12 18L20 10L18 8L12 14L6 8L4 10Z" fill="black"/>
<path d="M35 19H31.4091V7.36364H35.1591C36.2879 7.36364 37.2538 7.59659 38.0568 8.0625C38.8598 8.52462 39.4754 9.18939 39.9034 10.0568C40.3314 10.9205 40.5455 11.9545 40.5455 13.1591C40.5455 14.3712 40.3295 15.4148 39.8977 16.2898C39.4659 17.161 38.8371 17.8314 38.0114 18.3011C37.1856 18.767 36.1818 19 35 19ZM32.8182 17.75H34.9091C35.8712 17.75 36.6686 17.5644 37.3011 17.1932C37.9337 16.822 38.4053 16.2936 38.7159 15.608C39.0265 14.9223 39.1818 14.1061 39.1818 13.1591C39.1818 12.2197 39.0284 11.411 38.7216 10.733C38.4148 10.0511 37.9564 9.52841 37.3466 9.16477C36.7367 8.79735 35.9773 8.61364 35.0682 8.61364H32.8182V17.75ZM46.3864 19.1818C45.5455 19.1818 44.8201 18.9962 44.2102 18.625C43.6042 18.25 43.1364 17.7273 42.8068 17.0568C42.4811 16.3826 42.3182 15.5985 42.3182 14.7045C42.3182 13.8106 42.4811 13.0227 42.8068 12.3409C43.1364 11.6553 43.5947 11.1212 44.1818 10.7386C44.7727 10.3523 45.4621 10.1591 46.25 10.1591C46.7045 10.1591 47.1534 10.2348 47.5966 10.3864C48.0398 10.5379 48.4432 10.7841 48.8068 11.125C49.1705 11.4621 49.4602 11.9091 49.6761 12.4659C49.892 13.0227 50 13.7083 50 14.5227V15.0909H43.2727V13.9318H48.6364C48.6364 13.4394 48.5379 13 48.3409 12.6136C48.1477 12.2273 47.8712 11.9223 47.5114 11.6989C47.1553 11.4754 46.7348 11.3636 46.25 11.3636C45.7159 11.3636 45.2538 11.4962 44.8636 11.7614C44.4773 12.0227 44.1799 12.3636 43.9716 12.7841C43.7633 13.2045 43.6591 13.6553 43.6591 14.1364V14.9091C43.6591 15.5682 43.7727 16.1269 44 16.5852C44.2311 17.0398 44.5511 17.3864 44.9602 17.625C45.3693 17.8598 45.8447 17.9773 46.3864 17.9773C46.7386 17.9773 47.0568 17.928 47.3409 17.8295C47.6288 17.7273 47.8769 17.5758 48.0852 17.375C48.2936 17.1705 48.4545 16.9167 48.5682 16.6136L49.8636 16.9773C49.7273 17.4167 49.4981 17.803 49.1761 18.1364C48.8542 18.4659 48.4564 18.7235 47.983 18.9091C47.5095 19.0909 46.9773 19.1818 46.3864 19.1818ZM55.8352 10.2727V11.4091H51.3125V10.2727H55.8352ZM52.6307 8.18182H53.9716V16.5C53.9716 16.8788 54.0265 17.1629 54.1364 17.3523C54.25 17.5379 54.3939 17.6629 54.5682 17.7273C54.7462 17.7879 54.9337 17.8182 55.1307 17.8182C55.2784 17.8182 55.3996 17.8106 55.4943 17.7955C55.589 17.7765 55.6648 17.7614 55.7216 17.75L55.9943 18.9545C55.9034 18.9886 55.7765 19.0227 55.6136 19.0568C55.4508 19.0947 55.2443 19.1136 54.9943 19.1136C54.6155 19.1136 54.2443 19.0322 53.8807 18.8693C53.5208 18.7064 53.2216 18.4583 52.983 18.125C52.7481 17.7917 52.6307 17.3712 52.6307 16.8636V8.18182ZM60.4205 19.2045C59.8674 19.2045 59.3655 19.1004 58.9148 18.892C58.464 18.6799 58.1061 18.375 57.8409 17.9773C57.5758 17.5758 57.4432 17.0909 57.4432 16.5227C57.4432 16.0227 57.5417 15.6174 57.7386 15.3068C57.9356 14.9924 58.1989 14.7462 58.5284 14.5682C58.858 14.3902 59.2216 14.2576 59.6193 14.1705C60.0208 14.0795 60.4242 14.0076 60.8295 13.9545C61.3598 13.8864 61.7898 13.8352 62.1193 13.8011C62.4527 13.7633 62.6951 13.7008 62.8466 13.6136C63.0019 13.5265 63.0795 13.375 63.0795 13.1591V13.1136C63.0795 12.553 62.9261 12.1174 62.6193 11.8068C62.3163 11.4962 61.8561 11.3409 61.2386 11.3409C60.5985 11.3409 60.0966 11.4811 59.733 11.7614C59.3693 12.0417 59.1136 12.3409 58.9659 12.6591L57.6932 12.2045C57.9205 11.6742 58.2235 11.2614 58.6023 10.9659C58.9848 10.6667 59.4015 10.4583 59.8523 10.3409C60.3068 10.2197 60.7538 10.1591 61.1932 10.1591C61.4735 10.1591 61.7955 10.1932 62.1591 10.2614C62.5265 10.3258 62.8807 10.4602 63.2216 10.6648C63.5663 10.8693 63.8523 11.178 64.0795 11.5909C64.3068 12.0038 64.4205 12.5568 64.4205 13.25V19H63.0795V17.8182H63.0114C62.9205 18.0076 62.7689 18.2102 62.5568 18.4261C62.3447 18.642 62.0625 18.8258 61.7102 18.9773C61.358 19.1288 60.928 19.2045 60.4205 19.2045ZM60.625 18C61.1553 18 61.6023 17.8958 61.9659 17.6875C62.3333 17.4792 62.6098 17.2102 62.7955 16.8807C62.9848 16.5511 63.0795 16.2045 63.0795 15.8409V14.6136C63.0227 14.6818 62.8977 14.7443 62.7045 14.8011C62.5152 14.8542 62.2955 14.9015 62.0455 14.9432C61.7992 14.9811 61.5587 15.0152 61.3239 15.0455C61.0928 15.072 60.9053 15.0947 60.7614 15.1136C60.4129 15.1591 60.0871 15.233 59.7841 15.3352C59.4848 15.4337 59.2424 15.5833 59.0568 15.7841C58.875 15.9811 58.7841 16.25 58.7841 16.5909C58.7841 17.0568 58.9564 17.4091 59.3011 17.6477C59.6496 17.8826 60.0909 18 60.625 18ZM68.2088 7.36364V19H66.8679V7.36364H68.2088ZM72.0057 7.36364V19H70.6648V7.36364H72.0057ZM78.1207 19.1818C77.2798 19.1818 76.5545 18.9962 75.9446 18.625C75.3385 18.25 74.8707 17.7273 74.5412 17.0568C74.2154 16.3826 74.0526 15.5985 74.0526 14.7045C74.0526 13.8106 74.2154 13.0227 74.5412 12.3409C74.8707 11.6553 75.3291 11.1212 75.9162 10.7386C76.5071 10.3523 77.1965 10.1591 77.9844 10.1591C78.4389 10.1591 78.8878 10.2348 79.331 10.3864C79.7741 10.5379 80.1776 10.7841 80.5412 11.125C80.9048 11.4621 81.1946 11.9091 81.4105 12.4659C81.6264 13.0227 81.7344 13.7083 81.7344 14.5227V15.0909H75.0071V13.9318H80.3707C80.3707 13.4394 80.2723 13 80.0753 12.6136C79.8821 12.2273 79.6056 11.9223 79.2457 11.6989C78.8897 11.4754 78.4692 11.3636 77.9844 11.3636C77.4503 11.3636 76.9882 11.4962 76.598 11.7614C76.2116 12.0227 75.9143 12.3636 75.706 12.7841C75.4976 13.2045 75.3935 13.6553 75.3935 14.1364V14.9091C75.3935 15.5682 75.5071 16.1269 75.7344 16.5852C75.9654 17.0398 76.2855 17.3864 76.6946 17.625C77.1037 17.8598 77.5791 17.9773 78.1207 17.9773C78.473 17.9773 78.7912 17.928 79.0753 17.8295C79.3632 17.7273 79.6113 17.5758 79.8196 17.375C80.0279 17.1705 80.1889 16.9167 80.3026 16.6136L81.598 16.9773C81.4616 17.4167 81.2325 17.803 80.9105 18.1364C80.5885 18.4659 80.1908 18.7235 79.7173 18.9091C79.2438 19.0909 78.7116 19.1818 78.1207 19.1818ZM89.956 12.2273L88.7514 12.5682C88.6757 12.3674 88.5639 12.1723 88.4162 11.983C88.2723 11.7898 88.0753 11.6307 87.8253 11.5057C87.5753 11.3807 87.2552 11.3182 86.8651 11.3182C86.331 11.3182 85.8859 11.4413 85.5298 11.6875C85.1776 11.9299 85.0014 12.2386 85.0014 12.6136C85.0014 12.947 85.1226 13.2102 85.3651 13.4034C85.6075 13.5966 85.9863 13.7576 86.5014 13.8864L87.7969 14.2045C88.5772 14.3939 89.1586 14.6837 89.5412 15.0739C89.9238 15.4602 90.1151 15.9583 90.1151 16.5682C90.1151 17.0682 89.9711 17.5152 89.6832 17.9091C89.3991 18.303 89.0014 18.6136 88.4901 18.8409C87.9787 19.0682 87.384 19.1818 86.706 19.1818C85.8158 19.1818 85.0791 18.9886 84.4957 18.6023C83.9124 18.2159 83.5431 17.6515 83.3878 16.9091L84.6605 16.5909C84.7817 17.0606 85.0109 17.4129 85.348 17.6477C85.6889 17.8826 86.134 18 86.6832 18C87.3082 18 87.8045 17.8674 88.1719 17.6023C88.5431 17.3333 88.7287 17.0114 88.7287 16.6364C88.7287 16.3333 88.6226 16.0795 88.4105 15.875C88.1984 15.6667 87.8726 15.5114 87.4332 15.4091L85.9787 15.0682C85.1795 14.8788 84.5923 14.5852 84.2173 14.1875C83.8461 13.786 83.6605 13.2841 83.6605 12.6818C83.6605 12.1894 83.7988 11.7538 84.0753 11.375C84.3556 10.9962 84.7363 10.6989 85.2173 10.483C85.7022 10.267 86.2514 10.1591 86.8651 10.1591C87.7287 10.1591 88.4067 10.3485 88.8991 10.7273C89.3954 11.1061 89.7476 11.6061 89.956 12.2273ZM99.929 19.1818C99.2017 19.1818 98.5597 18.9981 98.0028 18.6307C97.446 18.2595 97.0104 17.7367 96.696 17.0625C96.3816 16.3845 96.2244 15.5833 96.2244 14.6591C96.2244 13.7424 96.3816 12.947 96.696 12.2727C97.0104 11.5985 97.4479 11.0777 98.0085 10.7102C98.5691 10.3428 99.2169 10.1591 99.9517 10.1591C100.52 10.1591 100.969 10.2538 101.298 10.4432C101.632 10.6288 101.885 10.8409 102.06 11.0795C102.238 11.3144 102.376 11.5076 102.474 11.6591H102.588V7.36364H103.929V19H102.634V17.6591H102.474C102.376 17.8182 102.236 18.0189 102.054 18.2614C101.872 18.5 101.613 18.714 101.276 18.9034C100.938 19.089 100.49 19.1818 99.929 19.1818ZM100.111 17.9773C100.649 17.9773 101.103 17.8371 101.474 17.5568C101.846 17.2727 102.128 16.8807 102.321 16.3807C102.514 15.8769 102.611 15.2955 102.611 14.6364C102.611 13.9848 102.516 13.4148 102.327 12.9261C102.137 12.4337 101.857 12.0511 101.486 11.7784C101.115 11.5019 100.656 11.3636 100.111 11.3636C99.5426 11.3636 99.0691 11.5095 98.6903 11.8011C98.3153 12.089 98.0331 12.4811 97.8438 12.9773C97.6581 13.4697 97.5653 14.0227 97.5653 14.6364C97.5653 15.2576 97.66 15.822 97.8494 16.3295C98.0426 16.8333 98.3267 17.2348 98.7017 17.5341C99.0805 17.8295 99.5502 17.9773 100.111 17.9773ZM110.23 19.1818C109.389 19.1818 108.664 18.9962 108.054 18.625C107.448 18.25 106.98 17.7273 106.651 17.0568C106.325 16.3826 106.162 15.5985 106.162 14.7045C106.162 13.8106 106.325 13.0227 106.651 12.3409C106.98 11.6553 107.438 11.1212 108.026 10.7386C108.616 10.3523 109.306 10.1591 110.094 10.1591C110.548 10.1591 110.997 10.2348 111.44 10.3864C111.884 10.5379 112.287 10.7841 112.651 11.125C113.014 11.4621 113.304 11.9091 113.52 12.4659C113.736 13.0227 113.844 13.7083 113.844 14.5227V15.0909H107.116V13.9318H112.48C112.48 13.4394 112.382 13 112.185 12.6136C111.991 12.2273 111.715 11.9223 111.355 11.6989C110.999 11.4754 110.579 11.3636 110.094 11.3636C109.56 11.3636 109.098 11.4962 108.707 11.7614C108.321 12.0227 108.024 12.3636 107.815 12.7841C107.607 13.2045 107.503 13.6553 107.503 14.1364V14.9091C107.503 15.5682 107.616 16.1269 107.844 16.5852C108.075 17.0398 108.395 17.3864 108.804 17.625C109.213 17.8598 109.688 17.9773 110.23 17.9773C110.582 17.9773 110.901 17.928 111.185 17.8295C111.473 17.7273 111.721 17.5758 111.929 17.375C112.137 17.1705 112.298 16.9167 112.412 16.6136L113.707 16.9773C113.571 17.4167 113.342 17.803 113.02 18.1364C112.698 18.4659 112.3 18.7235 111.827 18.9091C111.353 19.0909 110.821 19.1818 110.23 19.1818ZM117.224 7.36364V19H115.884V7.36364H117.224ZM124.18 22.2727V10.2727H125.476V11.6591H125.635C125.733 11.5076 125.87 11.3144 126.044 11.0795C126.222 10.8409 126.476 10.6288 126.805 10.4432C127.139 10.2538 127.589 10.1591 128.158 10.1591C128.893 10.1591 129.54 10.3428 130.101 10.7102C130.661 11.0777 131.099 11.5985 131.413 12.2727C131.728 12.947 131.885 13.7424 131.885 14.6591C131.885 15.5833 131.728 16.3845 131.413 17.0625C131.099 17.7367 130.663 18.2595 130.107 18.6307C129.55 18.9981 128.908 19.1818 128.18 19.1818C127.62 19.1818 127.171 19.089 126.834 18.9034C126.497 18.714 126.237 18.5 126.055 18.2614C125.874 18.0189 125.733 17.8182 125.635 17.6591H125.521V22.2727H124.18ZM125.499 14.6364C125.499 15.2955 125.595 15.8769 125.788 16.3807C125.982 16.8807 126.264 17.2727 126.635 17.5568C127.006 17.8371 127.461 17.9773 127.999 17.9773C128.559 17.9773 129.027 17.8295 129.402 17.5341C129.781 17.2348 130.065 16.8333 130.254 16.3295C130.447 15.822 130.544 15.2576 130.544 14.6364C130.544 14.0227 130.449 13.4697 130.26 12.9773C130.074 12.4811 129.792 12.089 129.413 11.8011C129.038 11.5095 128.567 11.3636 127.999 11.3636C127.453 11.3636 126.995 11.5019 126.624 11.7784C126.252 12.0511 125.972 12.4337 125.783 12.9261C125.593 13.4148 125.499 13.9848 125.499 14.6364ZM133.93 19V10.2727H135.226V11.5909H135.317C135.476 11.1591 135.764 10.8087 136.18 10.5398C136.597 10.2708 137.067 10.1364 137.589 10.1364C137.688 10.1364 137.811 10.1383 137.959 10.142C138.107 10.1458 138.218 10.1515 138.294 10.1591V11.5227C138.249 11.5114 138.144 11.4943 137.982 11.4716C137.822 11.4451 137.654 11.4318 137.476 11.4318C137.052 11.4318 136.673 11.5208 136.339 11.6989C136.01 11.8731 135.749 12.1155 135.555 12.4261C135.366 12.733 135.271 13.0833 135.271 13.4773V19H133.93ZM143.163 19.1818C142.375 19.1818 141.684 18.9943 141.089 18.6193C140.499 18.2443 140.036 17.7197 139.703 17.0455C139.374 16.3712 139.209 15.5833 139.209 14.6818C139.209 13.7727 139.374 12.9792 139.703 12.3011C140.036 11.6231 140.499 11.0966 141.089 10.7216C141.684 10.3466 142.375 10.1591 143.163 10.1591C143.951 10.1591 144.641 10.3466 145.232 10.7216C145.826 11.0966 146.288 11.6231 146.618 12.3011C146.951 12.9792 147.118 13.7727 147.118 14.6818C147.118 15.5833 146.951 16.3712 146.618 17.0455C146.288 17.7197 145.826 18.2443 145.232 18.6193C144.641 18.9943 143.951 19.1818 143.163 19.1818ZM143.163 17.9773C143.762 17.9773 144.254 17.8239 144.641 17.517C145.027 17.2102 145.313 16.8068 145.499 16.3068C145.684 15.8068 145.777 15.2652 145.777 14.6818C145.777 14.0985 145.684 13.5549 145.499 13.0511C145.313 12.5473 145.027 12.1402 144.641 11.8295C144.254 11.5189 143.762 11.3636 143.163 11.3636C142.565 11.3636 142.072 11.5189 141.686 11.8295C141.3 12.1402 141.014 12.5473 140.828 13.0511C140.643 13.5549 140.55 14.0985 140.55 14.6818C140.55 15.2652 140.643 15.8068 140.828 16.3068C141.014 16.8068 141.3 17.2102 141.686 17.517C142.072 17.8239 142.565 17.9773 143.163 17.9773ZM152.46 19.1818C151.733 19.1818 151.091 18.9981 150.534 18.6307C149.977 18.2595 149.542 17.7367 149.227 17.0625C148.913 16.3845 148.756 15.5833 148.756 14.6591C148.756 13.7424 148.913 12.947 149.227 12.2727C149.542 11.5985 149.979 11.0777 150.54 10.7102C151.1 10.3428 151.748 10.1591 152.483 10.1591C153.051 10.1591 153.5 10.2538 153.83 10.4432C154.163 10.6288 154.417 10.8409 154.591 11.0795C154.769 11.3144 154.907 11.5076 155.006 11.6591H155.119V7.36364H156.46V19H155.165V17.6591H155.006C154.907 17.8182 154.767 18.0189 154.585 18.2614C154.403 18.5 154.144 18.714 153.807 18.9034C153.47 19.089 153.021 19.1818 152.46 19.1818ZM152.642 17.9773C153.18 17.9773 153.634 17.8371 154.006 17.5568C154.377 17.2727 154.659 16.8807 154.852 16.3807C155.045 15.8769 155.142 15.2955 155.142 14.6364C155.142 13.9848 155.047 13.4148 154.858 12.9261C154.669 12.4337 154.388 12.0511 154.017 11.7784C153.646 11.5019 153.188 11.3636 152.642 11.3636C152.074 11.3636 151.6 11.5095 151.222 11.8011C150.847 12.089 150.564 12.4811 150.375 12.9773C150.189 13.4697 150.097 14.0227 150.097 14.6364C150.097 15.2576 150.191 15.822 150.381 16.3295C150.574 16.8333 150.858 17.2348 151.233 17.5341C151.612 17.8295 152.081 17.9773 152.642 17.9773ZM164.602 15.4318V10.2727H165.943V19H164.602V17.5227H164.511C164.307 17.9659 163.989 18.3428 163.557 18.6534C163.125 18.9602 162.58 19.1136 161.92 19.1136C161.375 19.1136 160.89 18.9943 160.466 18.7557C160.042 18.5133 159.708 18.1496 159.466 17.6648C159.223 17.1761 159.102 16.5606 159.102 15.8182V10.2727H160.443V15.7273C160.443 16.3636 160.621 16.8712 160.977 17.25C161.337 17.6288 161.795 17.8182 162.352 17.8182C162.686 17.8182 163.025 17.733 163.369 17.5625C163.718 17.392 164.009 17.1307 164.244 16.7784C164.483 16.4261 164.602 15.9773 164.602 15.4318ZM171.945 19.1818C171.126 19.1818 170.422 18.9886 169.831 18.6023C169.24 18.2159 168.786 17.6837 168.467 17.0057C168.149 16.3277 167.99 15.553 167.99 14.6818C167.99 13.7955 168.153 13.0133 168.479 12.3352C168.808 11.6534 169.267 11.1212 169.854 10.7386C170.445 10.3523 171.134 10.1591 171.922 10.1591C172.536 10.1591 173.089 10.2727 173.581 10.5C174.073 10.7273 174.477 11.0455 174.791 11.4545C175.106 11.8636 175.301 12.3409 175.376 12.8864H174.036C173.933 12.4886 173.706 12.1364 173.354 11.8295C173.005 11.5189 172.536 11.3636 171.945 11.3636C171.422 11.3636 170.964 11.5 170.57 11.7727C170.179 12.0417 169.875 12.4223 169.655 12.9148C169.439 13.4034 169.331 13.9773 169.331 14.6364C169.331 15.3106 169.437 15.8977 169.649 16.3977C169.865 16.8977 170.168 17.286 170.558 17.5625C170.952 17.839 171.414 17.9773 171.945 17.9773C172.293 17.9773 172.609 17.9167 172.893 17.7955C173.178 17.6742 173.418 17.5 173.615 17.2727C173.812 17.0455 173.952 16.7727 174.036 16.4545H175.376C175.301 16.9697 175.113 17.4337 174.814 17.8466C174.518 18.2557 174.126 18.5814 173.638 18.8239C173.153 19.0625 172.589 19.1818 171.945 19.1818ZM181.132 10.2727V11.4091H176.609V10.2727H181.132ZM177.928 8.18182H179.268V16.5C179.268 16.8788 179.323 17.1629 179.433 17.3523C179.547 17.5379 179.691 17.6629 179.865 17.7273C180.043 17.7879 180.231 17.8182 180.428 17.8182C180.575 17.8182 180.696 17.8106 180.791 17.7955C180.886 17.7765 180.962 17.7614 181.018 17.75L181.291 18.9545C181.2 18.9886 181.073 19.0227 180.911 19.0568C180.748 19.0947 180.541 19.1136 180.291 19.1136C179.912 19.1136 179.541 19.0322 179.178 18.8693C178.818 18.7064 178.518 18.4583 178.28 18.125C178.045 17.7917 177.928 17.3712 177.928 16.8636V8.18182ZM186.601 19.1818C185.813 19.1818 185.122 18.9943 184.527 18.6193C183.936 18.2443 183.474 17.7197 183.141 17.0455C182.811 16.3712 182.646 15.5833 182.646 14.6818C182.646 13.7727 182.811 12.9792 183.141 12.3011C183.474 11.6231 183.936 11.0966 184.527 10.7216C185.122 10.3466 185.813 10.1591 186.601 10.1591C187.389 10.1591 188.078 10.3466 188.669 10.7216C189.264 11.0966 189.726 11.6231 190.055 12.3011C190.389 12.9792 190.555 13.7727 190.555 14.6818C190.555 15.5833 190.389 16.3712 190.055 17.0455C189.726 17.7197 189.264 18.2443 188.669 18.6193C188.078 18.9943 187.389 19.1818 186.601 19.1818ZM186.601 17.9773C187.199 17.9773 187.692 17.8239 188.078 17.517C188.464 17.2102 188.75 16.8068 188.936 16.3068C189.122 15.8068 189.214 15.2652 189.214 14.6818C189.214 14.0985 189.122 13.5549 188.936 13.0511C188.75 12.5473 188.464 12.1402 188.078 11.8295C187.692 11.5189 187.199 11.3636 186.601 11.3636C186.002 11.3636 185.51 11.5189 185.124 11.8295C184.737 12.1402 184.451 12.5473 184.266 13.0511C184.08 13.5549 183.987 14.0985 183.987 14.6818C183.987 15.2652 184.08 15.8068 184.266 16.3068C184.451 16.8068 184.737 17.2102 185.124 17.517C185.51 17.8239 186.002 17.9773 186.601 17.9773Z" fill="black"/>
</svg>
